/vscmnt/brussel_pixiu_data/_data_brussel/112/vsc11236/PredSimResults/SUBJ06opt3D/weighted-expIG/worker_05.mot
version=1
nRows=9
nColumns=50
inDegrees=yes
endheader
                time	         pelvis_tilt	         pelvis_list	     pelvis_rotation	           pelvis_tx	           pelvis_ty	           pelvis_tz	       hip_flexion_r	     hip_adduction_r	      hip_rotation_r	        knee_angle_r	       ankle_angle_r	         mtp_angle_r	       hip_flexion_l	     hip_adduction_l	      hip_rotation_l	        knee_angle_l	       ankle_angle_l	         mtp_angle_l	    lumbar_extension	      lumbar_bending	     lumbar_rotation	 ercspn_r/activation	 intobl_r/activation	 extobl_r/activation	    abd_r/activation	    add_r/activation	hamstrings_r/activation	bifemsh_r/activation	glut_max_r/activation	iliopsoas_r/activation	rect_fem_r/activation	  vasti_r/activation	gastroc_r/activation	 soleus_r/activation	tib_ant_r/activation	 ercspn_l/activation	 intobl_l/activation	 extobl_l/activation	    abd_l/activation	    add_l/activation	hamstrings_l/activation	bifemsh_l/activation	glut_max_l/activation	iliopsoas_l/activation	rect_fem_l/activation	  vasti_l/activation	gastroc_l/activation	 soleus_l/activation	tib_ant_l/activation	
          0.00000000	         -5.82066522	         -0.78924685	          3.22337518	          0.00000000	          0.93433747	         -0.01241426	         30.88086228	         -0.86516460	         -4.85109471	         -7.18595988	         -0.25474666	          0.21741180	         -8.11962933	         -0.20408037	         -6.27165279	        -10.94611845	         10.51921388	         30.31900815	         -4.96581564	         -0.72667520	         -7.65196677	          0.19013311	          0.16441841	          0.00999999	          0.00999999	          0.26559336	          0.05516472	          0.08178032	          0.01562389	          0.13534811	          0.01800777	          0.00999999	          0.01000000	          0.00999999	          0.48626951	          0.11035931	          0.00999999	          0.00999999	          0.11676426	          0.01000000	          0.01000000	          0.27509180	          0.01314248	          0.59929561	          0.01480157	          0.00999999	          0.24453859	          0.41405352	          0.02574116	
          0.01299695	         -5.95209603	         -0.68667893	          3.19713633	          0.01568012	          0.93235799	         -0.01114785	         31.18630462	         -0.69869955	         -4.68693921	         -8.96668052	         -0.51335204	          0.21840152	         -8.53261541	         -0.25226321	         -6.73633215	        -11.71191650	          9.84565718	         32.06928121	         -4.61621388	         -0.40945164	         -8.20606352	          0.18186507	          0.13514408	          0.00999999	          0.00999999	          0.41549329	          0.06403814	          0.06721951	          0.04696076	          0.11124968	          0.01480153	          0.00999999	          0.01000001	          0.01800777	          0.48126000	          0.14504044	          0.00999999	          0.00999999	          0.09597464	          0.01000000	          0.01000000	          0.26328010	          0.01080251	          0.63026429	          0.01216624	          0.00999999	          0.23319092	          0.39846003	          0.02115800	
          0.02599389	         -6.05860304	         -0.63568845	          3.16066982	          0.03189683	          0.93060466	         -0.00986043	         31.30567765	         -0.56487056	         -4.34058107	        -10.77166874	         -0.70401219	          0.19352744	         -8.84746838	         -0.38336494	         -7.18020606	        -12.74633922	          9.04285357	         33.90054438	         -4.23004351	         -0.01876826	         -8.71767518	          0.15197488	          0.11108197	          0.00999999	          0.00999999	          0.34151563	          0.07321272	          0.05525123	          0.05585192	          0.09144192	          0.01216615	          0.01481443	          0.01216621	          0.01480153	          0.51171110	          0.13925209	          0.00999999	          0.00999999	          0.07888656	          0.01000000	          0.01000000	          0.25005215	          0.00999999	          0.61789984	          0.01000008	          0.00999999	          0.20310441	          0.37824521	          0.01739086	
          0.03899084	         -6.14270979	         -0.62720246	          3.10621612	          0.04846338	          0.92914903	         -0.00845465	         31.24346680	         -0.41650034	         -4.10948815	        -12.30808994	         -1.02967791	          0.18378824	         -8.99424402	         -0.60006155	         -7.61681654	        -14.14430684	          8.08002889	         35.82391866	         -3.83121832	          0.41900377	         -9.17738958	          0.13615928	          0.09130407	          0.00999999	          0.01000000	          0.28143019	          0.07723672	          0.04541387	          0.06792542	          0.07516088	          0.00999999	          0.05391037	          0.01000004	          0.01216615	          0.55506006	          0.14132383	          0.00999999	          0.00999999	          0.06484098	          0.01000000	          0.01024803	          0.22011026	          0.01000001	          0.56867441	          0.01000000	          0.00999999	          0.16694212	          0.35153252	          0.01429446	
          0.05198779	         -6.20567103	         -0.65745739	          3.03226839	          0.06519147	          0.92807546	         -0.00691903	         31.04144690	         -0.25060949	         -4.08040789	        -13.62150754	         -1.40947884	          0.15708655	         -8.92502617	         -0.90499623	         -8.06159432	        -15.95571949	          6.90506225	         37.83912376	         -3.44312645	          0.89491593	         -9.57975119	          0.13416834	          0.07504758	          0.00999999	          0.05310345	          0.26115743	          0.07923441	          0.03732804	          0.07166424	          0.06177865	          0.00999999	          0.12038825	          0.00999999	          0.00999999	          0.60215308	          0.16622510	          0.00999999	          0.00999999	          0.05329619	          0.01000000	          0.01035822	          0.19471627	          0.00999999	          0.49190549	          0.01000000	          0.00999999	          0.13721844	          0.32318040	          0.01174936	
          0.06498473	         -6.24877835	         -0.72492769	          2.94108324	          0.08190945	          0.92753699	         -0.00527395	         30.71814469	         -0.06418747	         -4.19428710	        -14.80200338	         -1.45925731	          0.12616012	         -8.60657312	         -1.30171130	         -8.52020439	        -18.19461673	          5.43139184	         39.91904013	         -3.08124884	          1.40490896	         -9.92226441	          0.13555589	          0.06168552	          0.00999999	          0.11008996	          0.22545883	          0.07911866	          0.03068187	          0.07467041	          0.05077910	          0.00999999	          0.18346872	          0.00999999	          0.00999999	          0.59857626	          0.19732964	          0.00999999	          0.00999999	          0.04380692	          0.01000000	          0.03517160	          0.17098888	          0.00999999	          0.40432279	          0.01000000	          0.00999999	          0.11278699	          0.26563885	          0.00999999	
          0.07798168	         -6.27482394	         -0.82386039	          2.83862357	          0.09842360	          0.92770601	         -0.00354327	         30.28048136	          0.15775090	         -4.33515022	        -15.88487444	         -0.92173951	          0.18475372	         -8.00951320	         -1.78951735	         -8.98831506	        -20.86237878	          3.60667122	         41.91154054	         -2.75952791	          1.93912232	        -10.20744121	          0.12664810	          0.05070255	          0.00999999	          0.16180103	          0.19442382	          0.07418530	          0.02521903	          0.06867578	          0.04173799	          0.00999999	          0.25942870	          0.01000000	          0.00999999	          0.52171018	          0.23243883	          0.00999999	          0.00999999	          0.03600719	          0.06384175	          0.10503455	          0.15080281	          0.00999999	          0.33233400	          0.00999999	          0.00999999	          0.09270552	          0.21834244	          0.00999999	
          0.09097863	         -6.28776621	         -0.94317686	          2.73116484	          0.11455112	          0.92871625	         -0.00175778	         29.69896201	          0.42443008	         -4.40353500	        -16.77607769	          0.10539366	          0.43388370	         -7.11664778	         -2.35988062	         -9.45881000	        -23.93952676	          1.45373275	         43.48871397	         -2.48973714	          2.48153491	        -10.44027336	          0.12075631	          0.04167507	          0.00999999	          0.18921788	          0.18779558	          0.07254518	          0.02072884	          0.05644822	          0.03430663	          0.00999999	          0.28791812	          0.00999999	          0.00999999	          0.43127463	          0.24642805	          0.00999999	          0.00999999	          0.02959619	          0.18196188	          0.15696068	          0.15550269	          0.00999999	          0.27316266	          0.00999999	          0.00999999	          0.07619950	          0.17946704	          0.00999999	
          0.10397558	         -6.29057609	         -1.04941756	          2.61896572	          0.13019167	          0.93054771	          0.00003866	         28.93811024	          0.70205302	         -4.40566311	        -17.31449584	          1.14298550	          0.84211751	         -5.93341880	         -2.97945010	         -9.94260288	        -27.41402510	         -0.79438322	         44.00724601	         -2.27808944	          2.99469596	        -10.61965186	          0.11968660	          0.03425492	          0.00999999	          0.19702927	          0.18346248	          0.07417620	          0.01703812	          0.04639774	          0.02819841	          0.00999999	          0.28360419	          0.00999999	          0.00999999	          0.36081083	          0.24757635	          0.00999999	          0.00999999	          0.02432665	          0.22643440	          0.16969709	          0.12781581	          0.00999999	          0.22452665	          0.00999999	          0.00999999	          0.06263235	          0.14751333	          0.00999999	
